<svg width="1440" height="576" xmlns="http://www.w3.org/2000/svg" xmlns:xlink="http://www.w3.org/1999/xlink" overflow="hidden"><defs><clipPath id="clip0"><rect x="0" y="0" width="1440" height="576"/></clipPath></defs><g clip-path="url(#clip0)"><rect x="0" y="0" width="1440" height="576" fill="#FFFFFF"/><path d="M526 324C525.906 262.236 522.562 267.979 522.469 206.216L224 202 526 324Z" fill="#FF9F9F" fill-rule="evenodd"/><path d="M0 138 34 136.367 32.3809 0 4.04764 13.0651 3.23813 133.101" fill="#B4C7E7" fill-rule="evenodd" transform="matrix(1 0 0 -1 491 389)"/><path d="M492 251 526 249.367 524.381 113 496.048 126.065 495.238 246.101" fill="#B4C7E7" fill-rule="evenodd"/><path d="M224.5 175.5 224.5 465.412" stroke="#000000" stroke-width="1.33333" stroke-miterlimit="8" fill="none" fill-rule="evenodd"/><path d="M224 154 224 443.912" stroke="#000000" stroke-width="4" stroke-miterlimit="8" fill="none" fill-rule="evenodd"/><path d="M519 390 525.22 113 1193 370.494 519 390Z" fill="#FF9F9F" fill-rule="evenodd"/><path d="M523 391 523.938 113 982 268.904 523 391Z" fill="#B4C7E7" fill-rule="evenodd"/><path d="M528 319 525.681 201 173 237.919 528 319Z" fill="#B4C7E7" fill-rule="evenodd"/><path d="M0 215 27.5 0 55 215Z" stroke="#2F528F" stroke-width="1.33333" stroke-miterlimit="8" fill="#FF0000" fill-rule="evenodd" transform="matrix(1 0 0 -1 1171.5 370.5)"/><path d="M510 250C510 173.232 516.268 111 524 111 531.732 111 538 173.232 538 250 538 326.768 531.732 389 524 389 516.268 389 510 326.768 510 250Z" stroke="#4472C4" stroke-width="4" stroke-miterlimit="8" fill="#FFFFFF" fill-rule="evenodd"/><path d="M161 254 1284.34 254" stroke="#7030A0" stroke-width="6" stroke-miterlimit="8" fill="none" fill-rule="evenodd"/><path d="M523.5 400.5 523.5 518.325" stroke="#000000" stroke-width="1.33333" stroke-miterlimit="8" fill="none" fill-rule="evenodd"/><path d="M325.5 129.5 325.5 419.412" stroke="#000000" stroke-width="1.33333" stroke-miterlimit="8" fill="none" fill-rule="evenodd"/><path d="M1198.5 371.5 1198.5 489.325" stroke="#000000" stroke-width="1.33333" stroke-miterlimit="8" fill="none" fill-rule="evenodd"/><text font-family="Calibri,Calibri_MSFontService,sans-serif" font-weight="400" font-size="24" transform="translate(542.078 164)">lens<tspan font-size="24" x="606.963" y="-32">Object 1</tspan><tspan font-size="24" x="-201.963" y="-47">focal </tspan><tspan font-size="24" x="-201.963" y="-18">plane</tspan><tspan font-size="24" x="67.4023" y="81">optical axis</tspan><tspan font-style="italic" font-size="24" x="-275.066" y="304">im</tspan><tspan font-style="italic" font-size="16" x="-250.566" y="309">1</tspan><tspan font-style="italic" font-size="24" x="-236.899" y="304">= </tspan>image distance<tspan font-style="italic" font-size="24" x="169.267" y="298">ob</tspan><tspan font-style="italic" font-size="16" x="193.933" y="303">1</tspan><tspan font-style="italic" font-size="24" x="207.6" y="298">= </tspan>Object 1 distance</text><path d="M493.509 460.833 516.311 461.13 516.293 462.464 493.491 462.167ZM515.021 457.78 522.968 461.884 514.917 465.779Z"/><path d="M0.00765244-0.666623 26.7688-0.35942 26.7535 0.973825-0.00765244 0.666623ZM25.4738-3.70784 33.4274 0.383727 25.382 4.29163Z" transform="matrix(-1 0 0 1 257.927 461.5)"/><path d="M3.99784e-07-0.666667 168.406-0.666566 168.406 0.666768-3.99784e-07 0.666667ZM167.073-3.9999 175.073 0.000104987 167.073 4.0001Z" transform="matrix(-1 0 0 1 700.573 459.5)"/><path d="M949.5 458.833 1192.7 458.833 1192.7 460.167 949.5 460.167ZM1191.37 455.5 1199.37 459.5 1191.37 463.5Z"/><text font-family="Calibri,Calibri_MSFontService,sans-serif" font-weight="400" font-size="24" transform="translate(194.985 57)">sensor <tspan font-size="24" x="0" y="29">and </tspan><tspan font-size="24" x="0" y="58">focus </tspan><tspan font-size="24" x="0" y="87">plane</tspan><tspan font-size="24" x="-155.397" y="278">circle of </tspan><tspan font-size="24" x="-155.397" y="307">confusion</tspan></text><path d="M0.287352-0.601559 121.152 57.1329 120.577 58.3361-0.287352 0.601559ZM121.386 53.5505 126.881 60.6081 117.938 60.7692Z" transform="matrix(1 0 0 -1 89.5001 306.108)"/><path d="M0 134 13.5 0 27 134Z" stroke="#2F528F" stroke-width="1.33333" stroke-miterlimit="8" fill="#2F5597" fill-rule="evenodd" transform="matrix(1 0 0 -1 970.5 272.5)"/><path d="M217.5 242C217.5 238.41 219.962 235.5 223 235.5 226.038 235.5 228.5 238.41 228.5 242 228.5 245.59 226.038 248.5 223 248.5 219.962 248.5 217.5 245.59 217.5 242Z" stroke="#2F528F" stroke-width="1.33333" stroke-miterlimit="8" fill="#4472C4" fill-rule="evenodd"/><text font-family="Calibri,Calibri_MSFontService,sans-serif" font-weight="400" font-size="24" transform="translate(1099.39 413)">New DOF</text><path d="M494 96 494 204.332" stroke="#000000" stroke-width="4" stroke-miterlimit="8" fill="none" fill-rule="evenodd"/><path d="M494 311 494 419.332" stroke="#000000" stroke-width="4" stroke-miterlimit="8" fill="none" fill-rule="evenodd"/><text font-family="Calibri,Calibri_MSFontService,sans-serif" font-weight="400" font-size="24" transform="translate(464.947 65)">aperture</text><path d="M970.5 305.5 970.5 439.187" stroke="#000000" stroke-width="1.33333" stroke-miterlimit="8" fill="none" fill-rule="evenodd"/><path d="M1425.5 311.5 1425.5 445.187" stroke="#000000" stroke-width="1.33333" stroke-miterlimit="8" fill="none" fill-rule="evenodd"/><path d="M1219.5 399.5 1411.5 399.5 1411.5 391.5 1427.5 407.5 1411.5 423.5 1411.5 415.5 1219.5 415.5Z" stroke="#2F528F" stroke-width="1.33333" stroke-miterlimit="8" fill="#FF9F9F" fill-rule="evenodd"/><path d="M0 8 100 8 100 0 116 16 100 32 100 24 0 24Z" stroke="#2F528F" stroke-width="1.33333" stroke-miterlimit="8" fill="#FF9F9F" fill-rule="evenodd" transform="matrix(-1 0 0 1 1085.5 393.5)"/><text font-family="Calibri,Calibri_MSFontService,sans-serif" font-weight="400" font-size="24" transform="translate(958.739 120)">Object 2</text></g></svg>