<svg xmlns="http://www.w3.org/2000/svg" viewBox="0 0 760 408" font-family="-apple-system, BlinkMacSystemFont, 'Helvetica Neue', Arial, sans-serif">
<rect width="760" height="408" rx="14" fill="#ffffff"/>
<text x="24" y="34" font-size="17" font-weight="600" fill="#1c2620">Mean score over the same 100 games</text>
<line x1="250.0" x2="250.0" y1="50" y2="364" stroke="#e3e8e2" stroke-width="1"/>
<text x="250.0" y="386" font-size="13" text-anchor="middle" fill="#8c9a90">0</text>
<line x1="330.0" x2="330.0" y1="50" y2="364" stroke="#e3e8e2" stroke-width="1"/>
<text x="330.0" y="386" font-size="13" text-anchor="middle" fill="#8c9a90">1,000</text>
<line x1="410.0" x2="410.0" y1="50" y2="364" stroke="#e3e8e2" stroke-width="1"/>
<text x="410.0" y="386" font-size="13" text-anchor="middle" fill="#8c9a90">2,000</text>
<line x1="490.0" x2="490.0" y1="50" y2="364" stroke="#e3e8e2" stroke-width="1"/>
<text x="490.0" y="386" font-size="13" text-anchor="middle" fill="#8c9a90">3,000</text>
<line x1="570.0" x2="570.0" y1="50" y2="364" stroke="#e3e8e2" stroke-width="1"/>
<text x="570.0" y="386" font-size="13" text-anchor="middle" fill="#8c9a90">4,000</text>
<line x1="650.0" x2="650.0" y1="50" y2="364" stroke="#e3e8e2" stroke-width="1"/>
<text x="650.0" y="386" font-size="13" text-anchor="middle" fill="#8c9a90">5,000</text>
<text x="238" y="83.0" font-size="14.5" text-anchor="end" fill="#1c2620">Random</text>
<path d="M250.0,66.0 h113.0 a4,4 0 0 1 4,4 v16 a4,4 0 0 1 -4,4 h-113.0 z" fill="#9db8a4"/>
<text x="375.0" y="83.0" font-size="14" font-weight="400" fill="#5b6a60">1,463</text>
<text x="238" y="127.0" font-size="14.5" text-anchor="end" fill="#1c2620">PPO from scratch</text>
<path d="M250.0,110.0 h127.8 a4,4 0 0 1 4,4 v16 a4,4 0 0 1 -4,4 h-127.8 z" fill="#9db8a4"/>
<text x="389.8" y="127.0" font-size="14" font-weight="400" fill="#5b6a60">1,648</text>
<text x="238" y="171.0" font-size="14.5" text-anchor="end" fill="#1c2620">BC (imitating greedy)</text>
<path d="M250.0,154.0 h267.2 a4,4 0 0 1 4,4 v16 a4,4 0 0 1 -4,4 h-267.2 z" fill="#9db8a4"/>
<text x="529.2" y="171.0" font-size="14" font-weight="400" fill="#5b6a60">3,390</text>
<text x="238" y="215.0" font-size="14.5" text-anchor="end" fill="#1c2620">BC + PPO + reward shaping</text>
<path d="M250.0,198.0 h309.0 a4,4 0 0 1 4,4 v16 a4,4 0 0 1 -4,4 h-309.0 z" fill="#9db8a4"/>
<text x="571.0" y="215.0" font-size="14" font-weight="400" fill="#5b6a60">3,913</text>
<text x="238" y="259.0" font-size="14.5" text-anchor="end" fill="#1c2620">Imitating search (550k moves)</text>
<path d="M250.0,242.0 h320.0 a4,4 0 0 1 4,4 v16 a4,4 0 0 1 -4,4 h-320.0 z" fill="#9db8a4"/>
<text x="582.0" y="259.0" font-size="14" font-weight="400" fill="#5b6a60">4,050</text>
<text x="238" y="303.0" font-size="14.5" text-anchor="end" fill="#1c2620">1-step greedy (simulator)</text>
<path d="M250.0,286.0 h347.3 a4,4 0 0 1 4,4 v16 a4,4 0 0 1 -4,4 h-347.3 z" fill="#9db8a4"/>
<text x="609.3" y="303.0" font-size="14" font-weight="400" fill="#5b6a60">4,391</text>
<text x="238" y="347.0" font-size="14.5" text-anchor="end" fill="#1c2620">Search: simulator + value</text>
<path d="M250.0,330.0 h392.2 a4,4 0 0 1 4,4 v16 a4,4 0 0 1 -4,4 h-392.2 z" fill="#d13f49"/>
<text x="654.2" y="347.0" font-size="14" font-weight="600" fill="#d13f49">4,953</text>
</svg>